<?xml version="1.0" standalone="no"?>
<!DOCTYPE svg PUBLIC "-//W3C//DTD SVG 20010904//EN"
 "http://www.w3.org/TR/2001/REC-SVG-20010904/DTD/svg10.dtd">
<svg version="1.0" xmlns="http://www.w3.org/2000/svg"
 width="509.000000pt" height="470.000000pt" viewBox="0 0 509.000000 470.000000"
 preserveAspectRatio="xMidYMid meet">

<g transform="translate(0.000000,470.000000) scale(0.100000,-0.100000)"
fill="#000000" stroke="none">
<path d="M0 2350 l0 -2350 2545 0 2545 0 0 2350 0 2350 -2545 0 -2545 0 0
-2350z m2736 1393 c40 -40 454 -675 454 -696 0 -13 -9 -33 -20 -45 l-21 -22
-457 0 c-506 0 -496 -1 -496 61 0 27 42 97 213 354 118 176 223 330 234 343
25 26 69 29 93 5z m438 -1005 c9 -12 16 -32 16 -43 0 -11 -154 -261 -343 -555
-340 -532 -342 -535 -378 -538 -24 -2 -40 3 -51 15 -8 10 -165 252 -347 537
-210 330 -331 528 -331 544 0 14 7 34 17 44 15 17 50 18 709 18 l693 0 15 -22z
m288 -190 c18 -14 481 -799 505 -856 11 -28 11 -36 -2 -62 -12 -23 -24 -30
-57 -35 -24 -3 -257 -5 -519 -3 -453 3 -478 4 -498 22 -12 11 -21 31 -21 48 0
20 77 161 241 441 133 227 250 422 262 435 23 24 64 29 89 10z m-1804 -155
c17 -15 563 -937 616 -1040 22 -43 20 -76 -5 -99 -20 -18 -46 -19 -649 -19
-603 0 -629 1 -649 19 -13 12 -21 31 -21 50 0 22 86 177 308 556 335 570 343
581 400 533z"/>
<path d="M2542 3343 l-152 -228 297 -3 c163 -1 298 -1 300 2 2 2 -63 105 -145
230 l-149 226 -151 -227z"/>
<path d="M1951 2593 c139 -225 511 -797 517 -793 4 2 119 180 255 395 137 214
255 400 263 413 l14 22 -536 0 -536 0 23 -37z"/>
<path d="M3236 2044 c-98 -168 -176 -307 -174 -310 3 -2 167 -3 364 -2 l360 3
-178 305 c-98 168 -181 306 -185 307 -5 1 -88 -135 -187 -303z"/>
<path d="M1373 1783 l-239 -408 479 -3 c264 -1 482 0 484 2 7 6 -467 816 -477
816 -4 0 -116 -183 -247 -407z"/>
</g>
</svg>
