<?xml version="1.0" standalone="no"?>
<!DOCTYPE svg PUBLIC "-//W3C//DTD SVG 20010904//EN"
 "http://www.w3.org/TR/2001/REC-SVG-20010904/DTD/svg10.dtd">
<svg version="1.0" xmlns="http://www.w3.org/2000/svg"
 width="515.000000pt" height="480.000000pt" viewBox="0 0 515.000000 480.000000"
 preserveAspectRatio="xMidYMid meet">

<g transform="translate(0.000000,480.000000) scale(0.100000,-0.100000)"
fill="#000000" stroke="none">
<path d="M2702 3783 c-17 -7 -472 -689 -472 -707 0 -7 9 -25 21 -40 l20 -26
459 0 c499 0 482 -2 496 56 5 21 -32 82 -217 361 -123 184 -232 341 -243 349
-21 14 -41 17 -64 7z m328 -635 c0 -5 -135 -8 -300 -8 -165 0 -300 2 -300 5 0
3 68 107 151 231 l151 226 149 -223 c82 -123 149 -227 149 -231z"/>
<path d="M1799 2769 c-14 -14 -20 -30 -17 -47 3 -23 635 -1027 677 -1075 10
-12 26 -17 50 -15 35 3 39 8 378 538 188 294 342 544 343 555 0 11 -7 31 -16
43 l-15 22 -690 0 c-687 0 -689 0 -710 -21z m1228 -133 c-9 -13 -127 -199
-263 -412 -136 -214 -250 -393 -254 -397 -5 -6 -474 715 -534 821 -6 9 103 12
530 12 l536 0 -15 -24z"/>
<path d="M3417 2572 c-39 -43 -507 -857 -507 -882 0 -15 8 -34 18 -43 17 -15
68 -17 533 -17 283 0 519 4 526 8 18 12 31 55 23 77 -12 30 -484 833 -503 855
-21 25 -69 26 -90 2z m213 -467 c89 -154 171 -295 182 -312 l20 -33 -371 0
-370 0 128 218 c227 387 243 413 245 410 2 -2 76 -129 166 -283z"/>
<path d="M1613 2418 c-38 -47 -623 -1063 -623 -1081 0 -12 7 -33 16 -45 l15
-22 635 0 c631 0 634 0 655 21 14 14 20 30 17 47 -4 29 -587 1032 -621 1070
-23 24 -78 30 -94 10z m293 -601 l241 -412 -244 -3 c-134 -1 -353 -1 -487 0
l-245 3 242 412 c133 227 244 413 247 413 3 0 113 -186 246 -413z"/>
</g>
</svg>
